<svg width="19" height="19" viewBox="0 0 19 19" fill="none" xmlns="http://www.w3.org/2000/svg">
<path d="M16.891 7.18494C17.3311 7.18494 17.719 7.34457 18.0453 7.62605C18.3263 7.93297 18.5001 8.31744 18.5001 8.74555V10.8062C18.5001 11.2522 18.3369 11.6322 18.0461 11.9257C17.7374 12.2128 17.3487 12.391 16.9152 12.391H13.4243C12.842 12.391 12.4152 12.8729 12.4152 13.4001V16.9152C12.4152 17.3613 12.252 17.7413 11.9613 18.0348C11.6525 18.3219 11.2638 18.5001 10.8304 18.5001H8.76979C8.32371 18.5001 7.94374 18.3369 7.65022 18.0461C7.36311 17.7373 7.18494 17.3487 7.18494 16.9152V13.4243C7.18494 12.842 6.70308 12.4152 6.17585 12.4152H2.68495C2.23887 12.4152 1.8589 12.252 1.56538 11.9613C1.27827 11.6525 1.1001 11.2638 1.1001 10.8304V8.76979C1.1001 8.32372 1.26331 7.94375 1.55407 7.65023C1.86284 7.36311 2.25153 7.18494 2.68495 7.18494H6.15161C6.73399 7.18494 7.1607 6.70308 7.1607 6.17585V2.68495C7.1607 2.23887 7.32391 1.8589 7.61468 1.56537C7.92345 1.27827 8.31214 1.1001 8.74555 1.1001H10.8062C11.2522 1.1001 11.6322 1.2633 11.9257 1.55407C12.2128 1.86284 12.391 2.25153 12.391 2.68495V6.17585C12.391 6.75823 12.8729 7.18494 13.4001 7.18494H16.891Z" fill="#573353" stroke="#FC9D45"/>
</svg>
