<svg width="20" height="26" viewBox="0 0 20 26" fill="none" xmlns="http://www.w3.org/2000/svg">
<path opacity="0.3" d="M20 12.9977C20.0033 11.3441 19.3894 9.75136 18.2832 8.54392C17.177 7.33648 15.6617 6.60514 14.046 6.49884C13.8554 6.25877 13.6488 6.03233 13.4279 5.8211C12.6101 5.0364 11.6322 4.44664 10.5645 4.09427C10.7867 3.695 10.9056 3.24446 10.9099 2.78522C10.9099 2.04653 10.6226 1.3381 10.1112 0.815771C9.5998 0.293442 8.90617 0 8.18293 0C7.45968 0 6.76605 0.293442 6.25464 0.815771C5.74322 1.3381 5.45591 2.04653 5.45591 2.78522C5.45713 3.25076 5.57612 3.70808 5.80133 4.11283C4.34195 4.60147 3.06075 5.52823 2.12506 6.77208C1.18937 8.01593 0.642679 9.51905 0.556377 11.0852L0.00188385 21.2976C-0.00613695 21.4247 0.0115119 21.552 0.0537337 21.6718C0.0959554 21.7916 0.161848 21.9012 0.247315 21.9939C0.332859 22.0856 0.435856 22.1584 0.549972 22.2079C0.664088 22.2574 0.786911 22.2825 0.910889 22.2817H3.7288C3.93743 23.3311 4.49485 24.2745 5.3066 24.9522C6.11835 25.6298 7.13452 26 8.18293 26C9.23133 26 10.2475 25.6298 11.0593 24.9522C11.871 24.2745 12.4284 23.3311 12.637 22.2817H15.455C15.5789 22.2825 15.7018 22.2574 15.8159 22.2079C15.93 22.1584 16.033 22.0856 16.1185 21.9939C16.204 21.9012 16.2699 21.7916 16.3121 21.6718C16.3543 21.552 16.372 21.4247 16.364 21.2976L16.2367 18.9209C17.3562 18.4091 18.307 17.5777 18.9747 16.5268C19.6423 15.476 19.9984 14.2504 20 12.9977ZM8.18293 1.85681C8.36271 1.85681 8.53846 1.91126 8.68794 2.01327C8.83743 2.11529 8.95394 2.26029 9.02274 2.42993C9.09154 2.59957 9.10954 2.78625 9.07446 2.96634C9.03939 3.14643 8.95282 3.31186 8.82569 3.4417C8.69856 3.57154 8.53659 3.65996 8.36026 3.69578C8.18393 3.7316 8.00116 3.71322 7.83506 3.64295C7.66897 3.57268 7.527 3.45369 7.42712 3.30101C7.32723 3.14833 7.27392 2.96884 7.27392 2.78522C7.27392 2.53899 7.36969 2.30284 7.54016 2.12873C7.71063 1.95462 7.94184 1.85681 8.18293 1.85681ZM1.87443 20.4249L2.37439 11.1873C2.43455 10.1082 2.78131 9.06623 3.37745 8.17321C3.97358 7.2802 4.79658 6.56986 5.75811 6.11844C6.71963 5.66702 7.78337 5.49158 8.83514 5.61094C9.88691 5.73029 10.887 6.13995 11.728 6.79593C10.2761 7.26039 9.0352 8.24084 8.23028 9.55952C7.42535 10.8782 7.1097 12.4478 7.34056 13.9838C7.57141 15.5197 8.33349 16.9203 9.48862 17.9317C10.6438 18.9431 12.1155 19.4982 13.637 19.4965C13.9044 19.4921 14.1714 19.4735 14.4369 19.4408L14.4914 20.4249H1.87443ZM15.564 13.6568C15.7333 13.8308 15.8284 14.0661 15.8284 14.3114C15.8284 14.5566 15.7333 14.7919 15.564 14.9659C15.3937 15.1388 15.1633 15.2359 14.9232 15.2359C14.6831 15.2359 14.4527 15.1388 14.2823 14.9659L13.637 14.3067L12.9916 14.9659C12.8212 15.1388 12.5909 15.2359 12.3507 15.2359C12.1106 15.2359 11.8802 15.1388 11.7099 14.9659C11.5406 14.7919 11.4455 14.5566 11.4455 14.3114C11.4455 14.0661 11.5406 13.8308 11.7099 13.6568L12.3553 12.9977L11.7099 12.3385C11.5609 12.1609 11.4831 11.9324 11.492 11.6988C11.5008 11.4651 11.5956 11.2435 11.7575 11.0781C11.9194 10.9128 12.1364 10.8159 12.3652 10.8069C12.594 10.7979 12.8177 10.8774 12.9916 11.0295L13.637 11.6886L14.2823 11.0295C14.4562 10.8774 14.6799 10.7979 14.9087 10.8069C15.1375 10.8159 15.3545 10.9128 15.5164 11.0781C15.6783 11.2435 15.7731 11.4651 15.7819 11.6988C15.7908 11.9324 15.713 12.1609 15.564 12.3385L14.9187 12.9977L15.564 13.6568Z" fill="#573353"/>
</svg>
