<svg width="40" height="37" viewBox="0 0 40 37" fill="none" xmlns="http://www.w3.org/2000/svg">
<path d="M4.27769 19.5154C4.27769 19.5154 2.89448 21.6245 1.703 24.4046C0.511516 27.1847 -0.118461 28.9925 0.0184907 29.8964C0.155443 30.7866 1.34692 31.1153 2.10016 30.0607C2.86709 29.0062 4.64747 24.6374 5.27744 23.6514C5.90742 22.6653 6.79761 21.8299 6.56479 20.3098C6.33197 18.7896 5.30483 18.5294 4.27769 19.5154Z" fill="url(#paint0_linear)"/>
<path d="M16.22 19.5154C16.22 19.5154 17.6032 21.6245 18.7947 24.4046C19.9862 27.1847 20.6162 28.9925 20.4792 29.8964C20.3423 30.7866 19.1508 31.1153 18.3976 30.0607C17.6443 29.0062 15.8503 24.6374 15.2203 23.6514C14.5903 22.6653 13.7001 21.8299 13.9329 20.3098C14.1657 18.7896 15.1929 18.5294 16.22 19.5154Z" fill="url(#paint1_linear)"/>
<path d="M6.93474 12.5724C6.93474 12.5724 5.42827 13.038 5.59261 14.2569C5.75695 15.4757 6.89365 15.2292 6.89365 15.2292C6.89365 15.2292 6.4828 16.1194 7.15386 16.4618C7.82492 16.8042 8.60555 16.2427 8.60555 16.2427C8.60555 16.2427 8.68772 17.1876 9.98876 17.1876C11.2898 17.1876 11.2213 16.1331 11.2213 16.1331C11.2213 16.1331 11.9609 16.9822 12.6867 16.3385C13.4263 15.6949 12.7415 14.8321 12.7415 14.8321C12.7415 14.8321 13.5495 15.1881 13.9467 14.3253C14.3438 13.4625 12.8921 12.23 12.8921 12.23L6.93474 12.5724Z" fill="url(#paint2_linear)"/>
<path d="M13.0697 13.3937C13.516 13.3937 13.8778 12.9277 13.8778 12.3528C13.8778 11.778 13.516 11.312 13.0697 11.312C12.6235 11.312 12.2617 11.778 12.2617 12.3528C12.2617 12.9277 12.6235 13.3937 13.0697 13.3937Z" fill="url(#paint3_linear)"/>
<path d="M13.0289 13.1608C13.3617 13.1608 13.6314 12.8174 13.6314 12.3939C13.6314 11.9703 13.3617 11.627 13.0289 11.627C12.6961 11.627 12.4263 11.9703 12.4263 12.3939C12.4263 12.8174 12.6961 13.1608 13.0289 13.1608Z" fill="#6D2009"/>
<path d="M6.90714 13.3937C7.35339 13.3937 7.71515 12.9277 7.71515 12.3528C7.71515 11.778 7.35339 11.312 6.90714 11.312C6.46088 11.312 6.09912 11.778 6.09912 12.3528C6.09912 12.9277 6.46088 13.3937 6.90714 13.3937Z" fill="url(#paint4_linear)"/>
<path d="M7.003 13.1199C7.34337 13.1199 7.61929 12.7643 7.61929 12.3256C7.61929 11.8869 7.34337 11.5312 7.003 11.5312C6.66264 11.5312 6.38672 11.8869 6.38672 12.3256C6.38672 12.7643 6.66264 13.1199 7.003 13.1199Z" fill="#6D2009"/>
<path d="M10.8514 15.27H9.23535V18.0501H10.8514V15.27Z" fill="url(#paint5_linear)"/>
<path d="M12.9606 12.2708C12.9606 14.2703 12.358 15.9001 10.0435 15.9001C7.90709 15.9001 7.12646 14.2703 7.12646 12.2708C7.12646 10.2713 8.42751 8.6416 10.0435 8.6416C11.6596 8.6416 12.9606 10.2713 12.9606 12.2708Z" fill="url(#paint6_linear)"/>
<path d="M12.9606 11.9012C12.9606 13.9007 12.358 15.5304 10.0435 15.5304C7.90709 15.5304 7.12646 13.9007 7.12646 11.9012C7.12646 9.9017 8.42751 8.27197 10.0435 8.27197C11.6596 8.27197 12.9606 9.9017 12.9606 11.9012Z" fill="url(#paint7_linear)"/>
<path d="M7.00321 11.6682C7.00321 11.6682 8.85206 10.9561 10.5092 10.9698C12.1663 10.9835 13.0017 11.408 13.0017 11.408L13.303 10.7507C13.303 10.7507 11.7144 9.76461 9.15336 10.1892C7.55102 10.4494 6.83887 10.8876 6.83887 10.8876L7.00321 11.6682Z" fill="#6D2009"/>
<path d="M6.56494 10.0249C6.56494 10.0249 6.6882 6.57373 9.86548 6.57373C13.0428 6.57373 13.3304 9.90166 13.3304 9.90166L6.56494 10.0249Z" fill="url(#paint8_linear)"/>
<path d="M10.0163 11.6958L9.6054 13.4762C9.53692 13.7638 9.75605 14.0377 10.0436 14.0377C10.3449 14.0377 10.5641 13.7501 10.4819 13.4625L10.0163 11.6958Z" fill="url(#paint9_linear)"/>
<path d="M6.68799 10.8879L7.2221 13.0791L7.56448 10.6003C7.56448 10.5866 6.92081 10.5729 6.68799 10.8879Z" fill="url(#paint10_linear)"/>
<path d="M13.2347 10.9013L12.8375 13.0789L12.4951 10.6C12.4951 10.5863 13.0018 10.5863 13.2347 10.9013Z" fill="url(#paint11_linear)"/>
<path d="M13.6176 10.7368C13.5491 10.8738 13.4396 10.9697 13.33 11.0244C13.0424 11.1888 12.2892 10.6273 10.1116 10.6273C7.92039 10.6273 6.78369 11.4079 6.44131 11.1888C6.35914 11.134 6.29066 11.0655 6.23588 10.9834C6.07154 10.7232 6.07154 10.326 6.40022 9.98361C6.81108 9.53167 7.71496 8.70996 9.96097 8.70996C11.7961 8.70996 13.152 9.14821 13.508 9.80558C13.7271 10.2164 13.7271 10.5314 13.6176 10.7368Z" fill="url(#paint12_linear)"/>
<path d="M13.618 10.7371C13.5496 10.8741 13.44 10.9699 13.3304 11.0247C13.0428 11.189 12.2896 10.6275 10.1121 10.6275C7.92084 10.6275 6.78414 11.4082 6.44176 11.189C6.35958 11.1343 6.29111 11.0658 6.23633 10.9836C6.8937 10.5728 8.0167 9.99756 9.97512 9.99756C11.5638 10.0113 12.8511 10.381 13.618 10.7371Z" fill="url(#paint13_linear)"/>
<path d="M4.7707 19.7072C4.81178 19.3375 5.0446 19.0225 5.38698 18.8444C6.15391 18.461 7.72886 17.8584 10.0023 17.8584C12.0702 17.8584 13.9876 18.2966 14.8777 18.6664C15.7269 19.0088 16.1103 19.4607 16.1377 19.9538C16.3294 22.6517 16.4116 31.0195 15.5899 31.6221C15.179 31.9234 12.8919 32.3068 10.2077 32.3068C7.52343 32.3068 5.20894 31.9918 4.97612 31.5673C4.41462 30.5812 4.4694 22.2683 4.7707 19.7072Z" fill="url(#paint14_linear)"/>
<path d="M7.75641 17.927L8.03031 16.7356C8.0714 16.5301 8.24943 16.3932 8.45486 16.3795C8.78355 16.3521 9.33135 16.3247 9.98872 16.3247C10.6735 16.3247 11.2487 16.3521 11.5911 16.3658C11.7965 16.3795 11.9745 16.5164 12.0156 16.7219L12.3032 17.8997C12.358 18.1051 12.2621 18.3105 12.0841 18.4201C11.7143 18.6392 11.0022 18.9542 10.0983 18.9542C9.18071 18.9542 8.42747 18.6666 8.01662 18.4749C7.81119 18.3516 7.71532 18.1325 7.75641 17.927Z" fill="url(#paint15_linear)"/>
<path d="M6.31839 31.362C6.30469 31.362 6.30469 31.362 6.29099 31.362C6.18143 31.3483 6.11296 31.2387 6.12665 31.1428C6.12665 31.1291 6.18143 30.595 6.03079 27.3904C5.86644 24.1035 5.72949 19.4745 5.72949 19.4335C5.72949 19.3239 5.81166 19.228 5.92122 19.228C6.03079 19.228 6.12665 19.3102 6.12665 19.4198C6.12665 19.4608 6.2636 24.0898 6.42795 27.3767C6.59229 30.6772 6.52381 31.1839 6.52381 31.2113C6.49642 31.2935 6.41425 31.362 6.31839 31.362Z" fill="#0D1748"/>
<path d="M14.3983 31.3618C14.3024 31.3618 14.2202 31.2934 14.2065 31.1975C14.2065 31.1838 14.1381 30.6771 14.3024 27.3628C14.4667 24.076 14.6037 19.4607 14.6037 19.4059C14.6037 19.2964 14.6996 19.2005 14.8091 19.2142C14.9187 19.2142 15.0009 19.3101 15.0009 19.4196C15.0009 19.4607 14.8639 24.0897 14.6996 27.3765C14.5352 30.5812 14.59 31.1153 14.6037 31.129C14.6174 31.2386 14.5352 31.3344 14.4393 31.3481C14.412 31.3618 14.3983 31.3618 14.3983 31.3618Z" fill="#0D1748"/>
<path d="M8.7972 31.7727C8.68764 31.7727 8.60547 31.6769 8.60547 31.5673V19.4881C8.60547 19.3649 8.68764 19.2827 8.7972 19.2827C8.90676 19.2827 8.98893 19.3786 8.98893 19.4881V31.5673C9.00263 31.6769 8.90676 31.7727 8.7972 31.7727Z" fill="#0D1748"/>
<path d="M11.7962 31.7727C11.6867 31.7727 11.6045 31.6769 11.6045 31.5673V19.4881C11.6045 19.3649 11.6867 19.2827 11.7962 19.2827C11.9058 19.2827 11.988 19.3786 11.988 19.4881V31.5673C11.988 31.6769 11.9058 31.7727 11.7962 31.7727Z" fill="#0D1748"/>
<path d="M39.9811 28.6641C39.9126 29.1298 39.5565 29.4448 39.1183 29.4721C38.7348 29.4995 38.2966 29.3078 37.9405 28.8285C37.1873 27.7876 35.448 23.5147 34.8317 22.5424C34.325 21.7481 33.6539 21.0633 33.558 20.0362C33.5306 19.8033 33.5306 19.5568 33.5854 19.2692C33.8182 17.7765 34.5989 17.1191 35.5164 18.2284C35.5164 18.2284 37.1873 20.5703 38.3513 23.2956C39.5017 26.0073 40.118 27.7876 39.9811 28.6641Z" fill="url(#paint16_linear)"/>
<path d="M39.1184 29.472C38.7349 29.4994 38.2966 29.3077 37.9406 28.8284C37.1873 27.7875 35.448 23.5146 34.8318 22.5423C34.325 21.748 33.654 21.0632 33.5581 20.0361C33.6677 19.2417 34.1196 19.0911 35.3659 21.0358C35.3659 21.0358 37.7762 26.0483 38.8718 28.8147C38.9677 29.0475 39.0499 29.2666 39.1184 29.472Z" fill="url(#paint17_linear)"/>
<path d="M20.1506 28.6641C20.2191 29.1298 20.5751 29.4448 21.0134 29.4721C21.3968 29.4995 21.8351 29.3078 22.1912 28.8285C22.9444 27.7876 24.6837 23.5147 25.3 22.5424C25.8067 21.7481 26.4778 21.0633 26.5736 20.0362C26.601 19.8033 26.601 19.5568 26.5462 19.2692C26.3134 17.7765 25.5328 17.1191 24.6152 18.2284C24.6152 18.2284 22.9444 20.5703 21.7803 23.2956C20.6299 26.0073 20.0273 27.7876 20.1506 28.6641Z" fill="url(#paint18_linear)"/>
<path d="M21.0132 29.472C21.3966 29.4994 21.8349 29.3077 22.191 28.8284C22.9442 27.7875 24.6835 23.5146 25.2998 22.5423C25.8065 21.748 26.4776 21.0632 26.5734 20.0361C26.4639 19.2417 26.0119 19.0911 24.7657 21.0358C24.7657 21.0358 22.3553 26.0483 21.2597 28.8147C21.1638 29.0475 21.0817 29.2666 21.0132 29.472Z" fill="url(#paint19_linear)"/>
<path d="M26.8203 11.9833C26.8203 11.9833 25.9438 12.5859 26.0671 13.298C26.1903 13.9965 26.9846 14.5169 28.3542 14.873C29.7237 15.2427 31.9971 14.8456 32.8873 14.1471C33.7911 13.4487 33.5446 13.12 33.2159 12.6133C32.8873 12.1065 32.4901 11.7642 32.4901 11.7642L26.8203 11.9833Z" fill="url(#paint20_linear)"/>
<path d="M35.1876 31.4027C34.7768 31.7314 32.5307 32.1286 29.915 32.1286C27.2992 32.1286 25.0121 31.7862 24.7793 31.348C24.5465 30.896 24.4095 29.0198 24.3684 26.8149C24.3273 24.966 24.3547 22.8843 24.4095 21.1998C24.4506 20.1727 24.4917 19.2825 24.5601 18.6799C24.6012 18.2827 24.8614 17.9951 25.1764 17.7623C26.0255 17.0913 27.4772 16.2559 29.6958 16.2559C31.7364 16.2559 33.4209 16.7078 34.3385 17.2967C34.7768 17.5843 35.1739 17.9404 35.2013 18.4745C35.2424 19.0771 35.2972 19.981 35.352 21.0218C35.4478 22.7337 35.5574 24.8427 35.5848 26.7053C35.6259 29.102 35.5574 31.1151 35.1876 31.4027Z" fill="url(#paint21_linear)"/>
<path d="M26.464 16.9547C26.464 16.9547 25.2588 18.242 27.765 18.7077C31.1614 19.3377 33.3527 17.0369 33.0924 16.9547C32.8322 16.8725 28.4498 16.1193 26.464 16.9547Z" fill="url(#paint22_linear)"/>
<path d="M32.723 12.6134C33.1617 12.6134 33.5174 12.1535 33.5174 11.5862C33.5174 11.0189 33.1617 10.5591 32.723 10.5591C32.2843 10.5591 31.9287 11.0189 31.9287 11.5862C31.9287 12.1535 32.2843 12.6134 32.723 12.6134Z" fill="url(#paint23_linear)"/>
<path d="M32.5174 12.4487C32.9334 12.4487 33.2706 12.0625 33.2706 11.5859C33.2706 11.1094 32.9334 10.7231 32.5174 10.7231C32.1014 10.7231 31.7642 11.1094 31.7642 11.5859C31.7642 12.0625 32.1014 12.4487 32.5174 12.4487Z" fill="url(#paint24_linear)"/>
<path d="M26.6693 12.6134C27.108 12.6134 27.4636 12.1535 27.4636 11.5862C27.4636 11.0189 27.108 10.5591 26.6693 10.5591C26.2306 10.5591 25.875 11.0189 25.875 11.5862C25.875 12.1535 26.2306 12.6134 26.6693 12.6134Z" fill="url(#paint25_linear)"/>
<path d="M26.8063 12.4487C27.1769 12.4487 27.4774 12.0625 27.4774 11.5859C27.4774 11.1094 27.1769 10.7231 26.8063 10.7231C26.4357 10.7231 26.1353 11.1094 26.1353 11.5859C26.1353 12.0625 26.4357 12.4487 26.8063 12.4487Z" fill="url(#paint26_linear)"/>
<path d="M30.5315 13.6953H28.9565V16.4207H30.5315V13.6953Z" fill="url(#paint27_linear)"/>
<path d="M32.6131 11.4079C32.9555 14.0511 32.1475 14.9687 29.7508 14.9687C26.8201 14.9687 26.6146 13.4485 26.7516 11.4353C26.9159 8.80583 28.1759 7.84717 29.7508 7.84717C31.3258 7.84717 32.3529 9.4632 32.6131 11.4079Z" fill="url(#paint28_linear)"/>
<path d="M32.6131 11.0109C32.9555 13.6541 32.1475 14.5717 29.7508 14.5717C26.8201 14.5717 26.6146 13.0515 26.7516 11.0383C26.9159 8.40886 28.1759 7.4502 29.7508 7.4502C31.3258 7.4502 32.3529 9.05253 32.6131 11.0109Z" fill="url(#paint29_linear)"/>
<path d="M26.7515 10.8193C26.7515 10.8193 27.5459 10.7371 28.6141 10.4906C29.6823 10.2441 31.4353 10.3673 31.942 10.5043C32.4487 10.6549 32.7226 10.5727 32.7226 10.5727L32.5583 9.92907C32.5583 9.92907 30.8327 9.44974 29.3262 9.573C27.8335 9.68256 26.7104 10.1208 26.7104 10.1208L26.7515 10.8193Z" fill="url(#paint30_linear)"/>
<path d="M29.7098 10.9697L29.3674 12.4214C29.3126 12.6542 29.4907 12.8734 29.7235 12.8734C29.97 12.8734 30.148 12.6405 30.0796 12.4077L29.7098 10.9697Z" fill="url(#paint31_linear)"/>
<path d="M26.5049 10.3535L26.6966 12.0928L27.2307 10.0796C27.2307 10.0796 26.724 10.0796 26.5049 10.3535Z" fill="url(#paint32_linear)"/>
<path d="M33.0242 10.3535L32.6818 11.9832L32.2983 10.0796C32.2983 10.0796 32.7914 10.0796 33.0242 10.3535Z" fill="url(#paint33_linear)"/>
<path d="M26.4232 16.7355L26.8203 15.5988C26.8888 15.4071 27.1353 15.2701 27.4229 15.2564C27.9023 15.229 28.6829 15.2017 29.6552 15.2017C30.6413 15.2017 31.4767 15.229 31.9834 15.2427C32.2847 15.2564 32.5312 15.3934 32.5997 15.5851L33.0106 16.6944C33.079 16.8862 32.9558 17.0779 32.6956 17.1875C32.1478 17.3929 31.1343 17.6942 29.8059 17.6942C28.4775 17.6942 27.3818 17.4203 26.7792 17.2285C26.5053 17.1464 26.3547 16.9409 26.4232 16.7355Z" fill="url(#paint34_linear)"/>
<path d="M27.5325 15.4344C27.3408 15.3797 26.9984 17.0368 27.0942 17.0642C27.2723 17.1189 27.3134 16.9272 27.5051 16.2972C27.6831 15.6673 27.6557 15.4755 27.5325 15.4344Z" fill="url(#paint35_linear)"/>
<path d="M28.5593 15.5575C28.3676 15.5301 28.3402 17.242 28.436 17.242C28.6278 17.2694 28.6278 17.0776 28.6962 16.4203C28.751 15.7629 28.6962 15.5711 28.5593 15.5575Z" fill="url(#paint36_linear)"/>
<path d="M29.8742 15.667C29.6824 15.667 29.792 17.3515 29.8879 17.3652C30.0796 17.3789 30.0659 17.1872 30.0796 16.5161C30.0933 15.845 30.0111 15.667 29.8742 15.667Z" fill="url(#paint37_linear)"/>
<path d="M31.0792 15.5852C30.8875 15.6126 31.2573 17.2698 31.3531 17.2561C31.5449 17.2287 31.5038 17.0506 31.4079 16.3933C31.3121 15.7359 31.2025 15.5716 31.0792 15.5852Z" fill="url(#paint38_linear)"/>
<path d="M32.0654 15.5851C31.8737 15.6399 32.5036 17.2148 32.5995 17.1874C32.7775 17.1326 32.7091 16.9546 32.5173 16.3246C32.3256 15.7083 32.1886 15.5577 32.0654 15.5851Z" fill="url(#paint39_linear)"/>
<path d="M32.2847 5.94364C31.778 5.62865 29.6004 4.66999 27.6968 5.73821C25.7658 6.82013 26.1629 9.34005 26.2177 9.53178C26.2725 9.72351 27.5735 8.84702 29.9291 8.9018C32.2984 8.95658 32.9558 9.28527 33.0379 9.14831C33.1201 9.01136 32.8051 8.25813 32.9831 7.80618C33.3529 6.9023 32.8325 6.28602 32.2847 5.94364Z" fill="url(#paint40_linear)"/>
<path d="M35.585 26.7055C34.2977 27.0341 32.2708 27.4176 29.792 27.4176C27.6829 27.4176 25.7108 27.0889 24.3687 26.815C24.3687 26.6233 24.3687 26.4316 24.355 26.2398C24.3413 24.7881 24.355 23.2543 24.3824 21.8847C24.3824 21.6519 24.3961 21.4191 24.4098 21.2C25.5739 21.4054 27.4227 21.6245 29.9837 21.6245C32.3393 21.6245 34.1607 21.3232 35.3522 21.0356C35.3659 21.2685 35.3796 21.515 35.3933 21.7615C35.4618 23.1447 35.544 24.706 35.5713 26.1713C35.585 26.3357 35.585 26.5274 35.585 26.7055Z" fill="url(#paint41_linear)"/>
<path d="M35.585 26.1579C34.2977 26.4592 32.2845 26.8016 29.792 26.8016C27.6692 26.8016 25.6971 26.5003 24.3687 26.2264C24.355 24.7747 24.3687 23.2408 24.396 21.8713C25.5601 22.0767 27.409 22.2959 29.9837 22.2959C32.3666 22.2959 34.1881 22.0083 35.3933 21.748C35.4755 23.1313 35.5439 24.6925 35.585 26.1579Z" fill="url(#paint42_linear)"/>
<path d="M33.4758 10.3121C33.3936 10.4628 33.2977 10.5723 33.1882 10.6271C32.9006 10.7915 32.1747 10.1067 29.9835 10.1067C27.7786 10.1067 26.6282 10.8736 26.2858 10.6545C26.1899 10.586 26.1078 10.4765 26.053 10.3395C25.9023 9.99715 25.916 9.49043 26.2173 9.18913C26.6282 8.75089 27.5732 8.23047 29.8329 8.23047C31.6817 8.23047 33.0375 8.65502 33.4073 9.29869C33.6264 9.70955 33.599 10.0656 33.4758 10.3121Z" fill="url(#paint43_linear)"/>
<path d="M33.476 10.3126C33.3938 10.4632 33.298 10.5728 33.1884 10.6275C32.9008 10.7919 32.175 10.1071 29.9837 10.1071C27.7788 10.1071 26.6284 10.8741 26.286 10.6549C26.1902 10.5865 26.108 10.4769 26.0532 10.3399C26.5873 9.94278 27.6556 9.42236 29.8468 9.42236C31.5176 9.43606 32.846 9.84691 33.476 10.3126Z" fill="url(#paint44_linear)"/>
<path d="M36.1055 16.4206C35.8453 16.4206 35.6262 16.2152 35.6125 15.955C35.5029 14.2841 35.1469 12.6681 34.5306 11.1205C34.4347 10.8603 34.558 10.5727 34.8045 10.4769C35.0647 10.381 35.3523 10.5043 35.4482 10.7508C36.0918 12.3942 36.4753 14.1198 36.5849 15.8865C36.5986 16.1604 36.3931 16.3932 36.1192 16.4069C36.1192 16.4206 36.1055 16.4206 36.1055 16.4206Z" fill="url(#paint45_linear)"/>
<path d="M9.15316 4.75223C9.01621 4.75223 8.86556 4.69745 8.7697 4.5742C8.59166 4.36877 8.61905 4.05378 8.83817 3.87574C11.8648 1.36952 15.7132 0 19.6437 0C22.7251 0 25.7517 0.835408 28.3812 2.41035C28.614 2.54731 28.6962 2.8623 28.5456 3.09511C28.4086 3.32793 28.0936 3.4101 27.8608 3.25946C25.382 1.76668 22.5334 0.986053 19.63 0.986053C15.9186 0.986053 12.3031 2.2871 9.45446 4.64267C9.37228 4.71115 9.26272 4.75223 9.15316 4.75223Z" fill="url(#paint46_linear)"/>
<path d="M3.18215 16.4752C3.16845 16.4752 3.16845 16.4752 3.15476 16.4752C2.88086 16.4616 2.67543 16.2287 2.68912 15.9548C2.79868 14.0512 3.23693 12.2023 3.96277 10.4494C4.07234 10.2028 4.35994 10.0796 4.60645 10.1892C4.85296 10.2987 4.97622 10.5863 4.86666 10.8328C4.1819 12.4763 3.77104 14.2292 3.67518 16.0096C3.66148 16.2835 3.44236 16.4752 3.18215 16.4752Z" fill="url(#paint47_linear)"/>
<path d="M15.8089 24.4319C15.8089 24.4319 14.4257 26.541 13.2342 29.3211C12.0428 32.1012 11.4128 33.909 11.5497 34.8129C11.6867 35.7031 12.8782 36.0318 13.6314 34.9772C14.3846 33.9227 16.1787 29.5539 16.8087 28.5679C17.4387 27.5818 18.3289 26.7464 18.096 25.2263C17.8632 23.7061 16.8361 23.4459 15.8089 24.4319Z" fill="url(#paint48_linear)"/>
<path d="M13.0286 35.1281C13.0559 35.0597 16.0278 28.1847 16.3565 27.9519C16.6852 27.719 17.1097 27.8286 16.6989 28.6914C16.288 29.5542 13.7544 34.7036 13.4942 35.0323C13.2477 35.3473 12.7957 35.717 13.0286 35.1281Z" fill="#F69241"/>
<path d="M25.9022 24.4319C25.9022 24.4319 27.2854 26.541 28.4769 29.3211C29.6683 32.1012 30.2983 33.909 30.1614 34.8129C30.0244 35.7031 28.8329 36.0318 28.0797 34.9772C27.3265 33.9227 25.5324 29.5539 24.9024 28.5679C24.2724 27.5818 23.3822 26.7464 23.6151 25.2263C23.8479 23.7061 24.875 23.4459 25.9022 24.4319Z" fill="url(#paint49_linear)"/>
<path d="M28.6825 35.1281C28.6551 35.0597 25.6833 28.1847 25.3546 27.9519C25.0259 27.719 24.6013 27.8286 25.0122 28.6914C25.423 29.5542 27.9567 34.7036 28.2169 35.0323C28.4634 35.3473 28.9153 35.717 28.6825 35.1281Z" fill="#F69241"/>
<path d="M17.4799 17.4062C17.4799 17.4062 17.1375 18.3649 16.6308 19.1592C16.1241 19.9536 16.1651 20.4603 16.576 20.5972C16.9869 20.7342 17.4799 20.3781 17.4799 20.3781C17.4799 20.3781 17.206 21.4737 17.8496 21.6381C18.4933 21.8024 18.7809 20.9944 18.7809 20.9944C18.7809 20.9944 18.7809 21.8161 19.5068 21.8161C20.2326 21.8161 20.5065 21.2272 20.5065 21.2272L20.6435 18.0773L17.4799 17.4062Z" fill="url(#paint50_linear)"/>
<path d="M23.2725 17.4062C23.2725 17.4062 23.6149 18.3649 24.1216 19.1592C24.6283 19.9536 24.5872 20.4603 24.1764 20.5972C23.7655 20.7342 23.2725 20.3781 23.2725 20.3781C23.2725 20.3781 23.5464 21.4737 22.9027 21.6381C22.259 21.8024 21.9714 20.9944 21.9714 20.9944C21.9714 20.9944 21.9714 21.8161 21.2456 21.8161C20.5197 21.8161 20.2458 21.2272 20.2458 21.2272L20.1089 18.0773L23.2725 17.4062Z" fill="url(#paint51_linear)"/>
<path d="M23.4232 17.7763C23.8467 17.7763 24.1901 17.3348 24.1901 16.7903C24.1901 16.2457 23.8467 15.8042 23.4232 15.8042C22.9996 15.8042 22.6562 16.2457 22.6562 16.7903C22.6562 17.3348 22.9996 17.7763 23.4232 17.7763Z" fill="url(#paint52_linear)"/>
<path d="M23.314 17.5846C23.6316 17.5846 23.8892 17.2534 23.8892 16.845C23.8892 16.4366 23.6316 16.1055 23.314 16.1055C22.9963 16.1055 22.7388 16.4366 22.7388 16.845C22.7388 17.2534 22.9963 17.5846 23.314 17.5846Z" fill="url(#paint53_linear)"/>
<path d="M17.5755 17.7763C17.9991 17.7763 18.3425 17.3348 18.3425 16.7903C18.3425 16.2457 17.9991 15.8042 17.5755 15.8042C17.152 15.8042 16.8086 16.2457 16.8086 16.7903C16.8086 17.3348 17.152 17.7763 17.5755 17.7763Z" fill="url(#paint54_linear)"/>
<path d="M17.6987 17.5846C18.0164 17.5846 18.2739 17.2534 18.2739 16.845C18.2739 16.4366 18.0164 16.1055 17.6987 16.1055C17.3811 16.1055 17.1235 16.4366 17.1235 16.845C17.1235 17.2534 17.3811 17.5846 17.6987 17.5846Z" fill="url(#paint55_linear)"/>
<path d="M21.3553 19.8989H19.7393V22.679H21.3553V19.8989Z" fill="url(#paint56_linear)"/>
<path d="M21.3553 19.8989V20.5563C21.0951 20.6522 20.8349 20.7069 20.5473 20.7069C20.2597 20.7069 19.9995 20.6522 19.7393 20.5563V19.8989H21.3553Z" fill="url(#paint57_linear)"/>
<path d="M20.5472 20.3506C22.075 20.3506 23.3136 18.8055 23.3136 16.8994C23.3136 14.9934 22.075 13.4482 20.5472 13.4482C19.0193 13.4482 17.7808 14.9934 17.7808 16.8994C17.7808 18.8055 19.0193 20.3506 20.5472 20.3506Z" fill="url(#paint58_linear)"/>
<path d="M20.5472 20.0909C22.075 20.0909 23.3136 18.5457 23.3136 16.6397C23.3136 14.7336 22.075 13.1885 20.5472 13.1885C19.0193 13.1885 17.7808 14.7336 17.7808 16.6397C17.7808 18.5457 19.0193 20.0909 20.5472 20.0909Z" fill="url(#paint59_linear)"/>
<path d="M17.9724 16.2285C17.9724 16.2285 18.082 16.8174 18.6572 16.7626C19.2324 16.7078 19.5063 16.4339 19.5063 16.4339C19.5063 16.4339 19.6159 16.8448 20.3417 16.6257C21.0676 16.4065 21.4784 15.8724 21.4784 15.8724C21.4784 15.8724 22.0673 15.8724 22.5466 15.982C23.026 16.0915 23.3821 16.2422 23.3821 16.2422L23.5464 15.7081C23.5464 15.7081 21.4099 15.3109 20.1637 15.4205C18.9174 15.53 18.3285 15.6122 18.3285 15.6122L17.8081 15.9957L17.9724 16.2285Z" fill="url(#paint60_linear)"/>
<path d="M18.1779 15.7493C18.1779 15.7493 18.0821 16.3519 18.534 16.4889C18.986 16.6258 19.6844 16.0506 19.6844 16.0506C19.6844 16.0506 19.5612 16.4889 20.0268 16.4341C20.9718 16.3382 21.4785 15.5028 21.4785 15.5028C21.4785 15.5028 19.5475 15.407 18.9312 15.4617C18.3149 15.5165 18.1779 15.7493 18.1779 15.7493Z" fill="url(#paint61_linear)"/>
<path d="M20.5198 16.8037L20.1912 18.2006C20.1364 18.4197 20.3144 18.6389 20.5335 18.6389C20.7664 18.6389 20.9444 18.4197 20.8759 18.1869L20.5198 16.8037Z" fill="url(#paint62_linear)"/>
<path d="M17.4932 15.7764L17.8629 17.6527L18.1916 15.5162C18.1916 15.5162 17.7123 15.5025 17.4932 15.7764Z" fill="url(#paint63_linear)"/>
<path d="M23.5742 15.7764L23.2045 17.6527L22.8758 15.5162C22.8621 15.5162 23.3551 15.5025 23.5742 15.7764Z" fill="url(#paint64_linear)"/>
<path d="M23.7797 15.5027H17.5484C17.5484 15.5027 17.4115 14.4208 15.9735 14.4756C15.5626 14.4893 15.5763 13.7497 16.083 12.9691C16.4391 12.4213 17.0554 11.8598 17.9319 11.5448C20.1368 10.7505 21.8487 11.668 22.8485 12.9691C23.8756 14.2838 23.7797 15.5027 23.7797 15.5027Z" fill="url(#paint65_linear)"/>
<path d="M17.4798 11.8324C17.1648 11.9967 16.9731 12.2843 17.3839 12.3528C17.7948 12.4213 19.2739 11.6407 20.7529 12.4213C22.232 13.2019 22.5196 13.3115 22.3416 12.6541C22.1636 12.0104 20.794 11.4489 19.9449 11.3257C19.0821 11.2024 18.4111 11.3531 17.4798 11.8324Z" fill="url(#paint66_linear)"/>
<path d="M19.9999 15.5028H17.5484C17.5484 15.5028 17.4115 14.4209 15.9735 14.4757C15.5626 14.4894 15.5763 13.7499 16.083 12.9692C16.6993 12.8186 17.6717 12.7638 18.6304 13.5581C19.3562 14.147 19.7671 14.8729 19.9999 15.5028Z" fill="url(#paint67_linear)"/>
<path d="M24.1767 15.5439C24.1493 15.7768 23.9986 15.9411 23.8343 16.0096C23.5604 16.1465 22.8482 15.6809 20.7529 15.6809C18.6575 15.6809 17.5619 16.3246 17.2332 16.1465C17.0826 16.0643 16.9867 15.9274 16.9593 15.7767C16.9045 15.585 16.9867 15.3522 17.2058 15.1605C17.603 14.7907 18.4521 14.1196 20.6159 14.1196C22.3689 14.1196 23.67 14.4757 24.0123 15.0235C24.1356 15.2152 24.1767 15.3933 24.1767 15.5439Z" fill="url(#paint68_linear)"/>
<path d="M24.1768 15.5437C24.1495 15.7765 23.9988 15.9409 23.8345 16.0094C23.5606 16.1463 22.8484 15.6807 20.753 15.6807C18.6577 15.6807 17.5621 16.3243 17.2334 16.1463C17.0827 16.0641 16.9869 15.9272 16.9595 15.7765C17.6305 15.4478 18.7398 15.1055 20.6709 15.1055C22.1636 15.1055 23.3962 15.2698 24.1768 15.5437Z" fill="url(#paint69_linear)"/>
<path d="M15.9729 24.5963C16.014 24.2403 16.2195 23.9253 16.5208 23.7609C17.1918 23.3912 18.575 22.7886 20.5471 22.7886C22.3549 22.7886 23.8751 23.0351 24.6694 23.3364C25.1076 23.5007 25.4089 23.9253 25.4363 24.4183C25.6007 27.0615 26.1485 35.6757 25.4226 36.2783C25.0666 36.5796 23.0671 36.9494 20.7252 36.9494C18.3833 36.9494 16.3564 36.6344 16.151 36.2373C15.6716 35.2375 15.7127 27.1026 15.9729 24.5963Z" fill="url(#paint70_linear)"/>
<path d="M18.2603 22.5423L18.5342 21.3508C18.5753 21.1454 18.7533 21.0084 18.9588 20.9947C19.2875 20.9673 19.8353 20.9399 20.4926 20.9399C21.1774 20.9399 21.7526 20.9673 22.095 20.981C22.3004 20.9947 22.4784 21.1317 22.5195 21.3371L22.8071 22.5149C22.8619 22.7203 22.766 22.9257 22.588 23.0353C22.2182 23.2544 21.5061 23.5694 20.6022 23.5694C19.6846 23.5694 18.9314 23.2818 18.5205 23.0901C18.3151 22.9805 18.2192 22.7614 18.2603 22.5423Z" fill="url(#paint71_linear)"/>
<path d="M19.1505 21.1317C19.0546 21.1454 18.8629 22.6793 18.9587 22.6793C19.0546 22.6793 19.2874 21.1043 19.1505 21.1317Z" fill="#EF6743"/>
<path d="M19.8492 21.118C19.7534 21.1454 19.6164 22.8984 19.7123 22.8847C19.8081 22.871 19.9999 21.0906 19.8492 21.118Z" fill="#EF6743"/>
<path d="M21.3007 21.1179C21.2048 21.1453 21.3144 22.9256 21.4103 22.9119C21.5198 22.8982 21.4377 21.0768 21.3007 21.1179Z" fill="#EF6743"/>
<path d="M21.9717 21.1318C21.8759 21.1729 22.0539 22.7067 22.1635 22.6793C22.273 22.6519 22.1087 21.077 21.9717 21.1318Z" fill="#EF6743"/>
<path d="M20.5748 21.1178C20.4789 21.1452 20.5063 23.0215 20.6022 23.0078C20.7117 23.0078 20.7117 21.0767 20.5748 21.1178Z" fill="#EF6743"/>
<path d="M20.7255 23.2134C21.78 23.2134 22.6839 22.5834 22.6839 22.7066C22.6839 22.8299 21.6157 23.3366 20.5886 23.3366C19.5614 23.3366 18.233 22.8162 18.3152 22.6929C18.3973 22.5697 19.0136 23.2134 20.7255 23.2134Z" fill="#EF6743"/>
<path d="M19.3286 26.1578C19.3286 26.1578 19.5888 25.1169 19.2327 23.9802C18.863 22.8435 18.5891 22.5696 18.3562 22.597C18.1234 22.6107 16.2472 23.4598 15.85 23.6926C15.4529 23.9255 15.3844 24.9115 15.4255 25.5826C15.4529 26.24 15.3296 27.363 15.2337 28.4312C15.1379 29.4994 15.4392 30.2116 15.4392 30.2116C15.4392 30.2116 15.1105 30.8005 15.0557 31.855C15.0009 32.9232 14.9735 33.8819 15.5076 34.1695C16.0418 34.4571 17.5893 34.7173 18.5206 34.6351C19.4519 34.5666 19.4656 33.7723 19.5888 32.841C19.7121 31.9098 19.4929 30.6909 19.4929 30.6909C19.4929 30.6909 19.8079 30.28 19.7669 28.486C19.6847 26.6782 19.3286 26.1578 19.3286 26.1578Z" fill="url(#paint72_linear)"/>
<path d="M21.8893 26.1578C21.8893 26.1578 21.6428 25.1169 21.9852 23.9802C22.3275 22.8435 22.6014 22.5696 22.8206 22.597C23.0397 22.6107 24.8475 23.2818 25.2172 23.5146C25.6007 23.7474 25.6418 24.9115 25.6144 25.5689C25.587 26.2263 25.6966 27.3493 25.7924 28.4175C25.8883 29.4857 25.587 30.1979 25.587 30.1979C25.587 30.1979 25.902 30.7868 25.9568 31.8413C25.9979 32.9095 26.0389 33.8682 25.5322 34.1558C25.0255 34.4434 23.5601 34.7036 22.6699 34.6214C21.7934 34.5529 21.7797 33.7586 21.6565 32.8273C21.5332 31.8961 21.7523 30.6772 21.7523 30.6772C21.7523 30.6772 21.451 30.2663 21.4921 28.4723C21.5469 26.6782 21.8893 26.1578 21.8893 26.1578Z" fill="url(#paint73_linear)"/>
<path d="M16.124 35.402C16.124 35.4568 18.3563 36.0457 20.8215 36.0457C23.2866 36.0457 25.5737 35.4431 25.5737 35.3473C25.5737 35.2514 23.6016 35.9225 20.8215 35.9225C18.0413 35.9225 16.1514 35.224 16.124 35.402Z" fill="#EF6743"/>
<path d="M16.4253 35.5666C16.3842 35.5803 16.4527 36.3472 16.4937 36.3472C16.5485 36.3472 16.4937 35.5529 16.4253 35.5666Z" fill="#EF6743"/>
<path d="M17.3291 35.7858C17.288 35.7995 17.3565 36.5664 17.3976 36.5664C17.4386 36.5664 17.3976 35.7721 17.3291 35.7858Z" fill="#EF6743"/>
<path d="M18.3286 35.9499C18.2875 35.9636 18.356 36.7305 18.3971 36.7305C18.4381 36.7305 18.3971 35.9362 18.3286 35.9499Z" fill="#EF6743"/>
<path d="M19.3833 36.0734C19.3422 36.0871 19.4107 36.8541 19.4518 36.8541C19.4928 36.8541 19.4518 36.046 19.3833 36.0734Z" fill="#EF6743"/>
<path d="M25.0532 35.5666C25.0943 35.5803 25.0258 36.3472 24.9848 36.3472C24.93 36.3472 24.9848 35.5529 25.0532 35.5666Z" fill="#EF6743"/>
<path d="M24.1492 35.7858C24.1903 35.7995 24.1218 36.5664 24.0808 36.5664C24.0397 36.5664 24.0944 35.7721 24.1492 35.7858Z" fill="#EF6743"/>
<path d="M23.1498 35.9499C23.1909 35.9636 23.1224 36.7305 23.0813 36.7305C23.0402 36.7305 23.0813 35.9362 23.1498 35.9499Z" fill="#EF6743"/>
<path d="M22.0951 36.0734C22.1362 36.0871 22.0677 36.8541 22.0266 36.8541C21.9856 36.8541 22.0266 36.046 22.0951 36.0734Z" fill="#EF6743"/>
<path d="M20.6846 36.1144C20.6435 36.1281 20.6435 36.8951 20.6983 36.8951C20.753 36.8951 20.753 36.1007 20.6846 36.1144Z" fill="#EF6743"/>
<path d="M22.2455 26.1027C22.1086 26.267 22.5331 26.3355 23.3822 26.445C24.2313 26.5546 25.3817 26.4177 25.2859 26.3218C25.19 26.2259 24.2176 26.3629 23.6287 26.2807C23.0398 26.1985 22.3825 25.9383 22.2455 26.1027Z" fill="#A02168"/>
<path d="M23.533 30.6222C22.8346 30.7044 21.9855 30.6085 22.0129 30.7592C22.0402 30.9098 23.3413 30.9646 24.2589 30.7318C25.1764 30.499 25.5736 30.2798 25.3819 30.2388C25.1901 30.184 24.4643 30.499 23.533 30.6222Z" fill="#A02168"/>
<path d="M18.8902 26.1027C19.0271 26.267 18.6026 26.3355 17.7535 26.445C16.9044 26.5546 15.754 26.4177 15.8499 26.3218C15.9457 26.2259 16.9181 26.3629 17.507 26.2807C18.0959 26.1985 18.7532 25.9383 18.8902 26.1027Z" fill="#A02168"/>
<path d="M17.603 30.6222C18.3015 30.7044 19.1506 30.6085 19.1232 30.7592C19.0958 30.9098 17.7947 30.9646 16.8772 30.7318C15.9596 30.499 15.5624 30.2798 15.7541 30.2388C15.9322 30.184 16.658 30.499 17.603 30.6222Z" fill="#A02168"/>
<path d="M15.5211 25.8838C15.3431 26.1167 15.7951 26.5549 17.4385 26.3358C19.0819 26.1167 19.2873 25.7469 19.1504 25.5004C18.9997 25.2539 18.3971 25.5688 17.4111 25.7195C16.425 25.8564 15.6581 25.6921 15.5211 25.8838Z" fill="url(#paint74_linear)"/>
<path d="M15.5214 29.6774C15.3022 29.8691 15.8638 30.4991 17.5209 30.6224C19.178 30.7456 19.4382 30.4854 19.3423 30.2115C19.2465 29.9376 18.3974 29.9376 17.4113 29.8828C16.4253 29.828 15.7131 29.513 15.5214 29.6774Z" fill="url(#paint75_linear)"/>
<path d="M15.1786 33.6213C14.9595 33.8131 15.521 34.4431 17.1781 34.5663C18.8352 34.6896 19.0954 34.4294 18.9996 34.1555C18.9037 33.8816 18.0546 33.8816 17.0685 33.8268C16.0825 33.772 15.3566 33.4707 15.1786 33.6213Z" fill="#A02168"/>
<path d="M25.505 25.8838C25.683 26.1167 25.2311 26.5549 23.5877 26.3358C21.9443 26.1167 21.7388 25.7469 21.8758 25.5004C22.0264 25.2539 22.629 25.5688 23.6151 25.7195C24.5874 25.8564 25.3544 25.6921 25.505 25.8838Z" fill="url(#paint76_linear)"/>
<path d="M25.4912 29.6774C25.7103 29.8691 25.1488 30.4991 23.4917 30.6224C21.8345 30.7456 21.5743 30.4854 21.6702 30.2115C21.7661 29.9376 22.6152 29.9376 23.6012 29.8828C24.601 29.828 25.3131 29.513 25.4912 29.6774Z" fill="url(#paint77_linear)"/>
<path d="M25.8471 33.6213C26.0662 33.8131 25.5047 34.4431 23.8476 34.5663C22.1905 34.6896 21.9303 34.4294 22.0262 34.1555C22.122 33.8816 22.9711 33.8816 23.9572 33.8268C24.9432 33.772 25.6554 33.4707 25.8471 33.6213Z" fill="#A02168"/>
<defs>
<linearGradient id="paint0_linear" x1="0.989973" y1="30.9084" x2="3.54174" y2="24.3776" gradientUnits="userSpaceOnUse">
<stop stop-color="#0D1748"/>
<stop offset="1" stop-color="#1B237E"/>
</linearGradient>
<linearGradient id="paint1_linear" x1="17.2009" y1="35.2091" x2="17.2009" y2="18.0241" gradientUnits="userSpaceOnUse">
<stop stop-color="#0D1748"/>
<stop offset="1" stop-color="#1B237E"/>
</linearGradient>
<linearGradient id="paint2_linear" x1="5.56908" y1="14.6999" x2="14.0179" y2="14.6999" gradientUnits="userSpaceOnUse">
<stop stop-color="#0D1748"/>
<stop offset="1" stop-color="#1B237E"/>
</linearGradient>
<linearGradient id="paint3_linear" x1="13.0754" y1="9.74971" x2="13.0754" y2="18.6081" gradientUnits="userSpaceOnUse">
<stop stop-color="#74300C"/>
<stop offset="1" stop-color="#B34F27"/>
</linearGradient>
<linearGradient id="paint4_linear" x1="6.91105" y1="9.74971" x2="6.91105" y2="18.6081" gradientUnits="userSpaceOnUse">
<stop stop-color="#74300C"/>
<stop offset="1" stop-color="#B34F27"/>
</linearGradient>
<linearGradient id="paint5_linear" x1="10.043" y1="15.6333" x2="10.043" y2="17.5342" gradientUnits="userSpaceOnUse">
<stop stop-color="#74300C"/>
<stop offset="1" stop-color="#B34F27"/>
</linearGradient>
<linearGradient id="paint6_linear" x1="10.0458" y1="16.0781" x2="10.0458" y2="12.9148" gradientUnits="userSpaceOnUse">
<stop stop-color="#74300C"/>
<stop offset="1" stop-color="#B34F27"/>
</linearGradient>
<linearGradient id="paint7_linear" x1="10.0458" y1="8.02718" x2="10.0458" y2="14.3984" gradientUnits="userSpaceOnUse">
<stop stop-color="#74300C"/>
<stop offset="1" stop-color="#B34F27"/>
</linearGradient>
<linearGradient id="paint8_linear" x1="9.94809" y1="6.94042" x2="9.94809" y2="10.5108" gradientUnits="userSpaceOnUse">
<stop stop-color="#F9B566"/>
<stop offset="1" stop-color="#F89E44"/>
</linearGradient>
<linearGradient id="paint9_linear" x1="10.0386" y1="11.527" x2="10.0386" y2="13.863" gradientUnits="userSpaceOnUse">
<stop offset="0.00537634" stop-color="#F05C54"/>
<stop offset="1" stop-color="#EF635E"/>
</linearGradient>
<linearGradient id="paint10_linear" x1="7.12619" y1="12.0886" x2="7.12619" y2="10.0006" gradientUnits="userSpaceOnUse">
<stop stop-color="#0D1748"/>
<stop offset="1" stop-color="#1B237E"/>
</linearGradient>
<linearGradient id="paint11_linear" x1="12.8585" y1="12.0884" x2="12.8585" y2="10.0007" gradientUnits="userSpaceOnUse">
<stop stop-color="#0D1748"/>
<stop offset="1" stop-color="#1B237E"/>
</linearGradient>
<linearGradient id="paint12_linear" x1="9.90533" y1="7.79972" x2="9.90533" y2="12.6299" gradientUnits="userSpaceOnUse">
<stop stop-color="#F9B566"/>
<stop offset="1" stop-color="#F89E44"/>
</linearGradient>
<linearGradient id="paint13_linear" x1="9.92224" y1="7.92379" x2="9.92224" y2="10.0062" gradientUnits="userSpaceOnUse">
<stop stop-color="#F9B566"/>
<stop offset="1" stop-color="#F89E44"/>
</linearGradient>
<linearGradient id="paint14_linear" x1="10.4093" y1="37.1181" x2="10.4093" y2="20.19" gradientUnits="userSpaceOnUse">
<stop stop-color="#0D1748"/>
<stop offset="1" stop-color="#1B237E"/>
</linearGradient>
<linearGradient id="paint15_linear" x1="10.0279" y1="20.0627" x2="10.0279" y2="16.4904" gradientUnits="userSpaceOnUse">
<stop stop-color="#0D1748"/>
<stop offset="1" stop-color="#1B237E"/>
</linearGradient>
<linearGradient id="paint16_linear" x1="36.7626" y1="32.01" x2="36.7626" y2="21.4847" gradientUnits="userSpaceOnUse">
<stop stop-color="#EB4826"/>
<stop offset="1" stop-color="#EF6844"/>
</linearGradient>
<linearGradient id="paint17_linear" x1="35.971" y1="27.2583" x2="35.5385" y2="30.2858" gradientUnits="userSpaceOnUse">
<stop stop-color="#EB4826"/>
<stop offset="1" stop-color="#EF6844"/>
</linearGradient>
<linearGradient id="paint18_linear" x1="23.3695" y1="32.01" x2="23.3695" y2="21.4847" gradientUnits="userSpaceOnUse">
<stop stop-color="#EB4826"/>
<stop offset="1" stop-color="#EF6844"/>
</linearGradient>
<linearGradient id="paint19_linear" x1="24.161" y1="27.2583" x2="24.5935" y2="30.2858" gradientUnits="userSpaceOnUse">
<stop stop-color="#EB4826"/>
<stop offset="1" stop-color="#EF6844"/>
</linearGradient>
<linearGradient id="paint20_linear" x1="26.048" y1="13.3858" x2="33.5137" y2="13.3858" gradientUnits="userSpaceOnUse">
<stop offset="0.00537634" stop-color="#6A0F35"/>
<stop offset="1" stop-color="#782843"/>
</linearGradient>
<linearGradient id="paint21_linear" x1="29.9766" y1="29.1581" x2="29.9766" y2="20.6981" gradientUnits="userSpaceOnUse">
<stop stop-color="#EB4826"/>
<stop offset="1" stop-color="#EF6844"/>
</linearGradient>
<linearGradient id="paint22_linear" x1="29.475" y1="18.4748" x2="29.3558" y2="19.3094" gradientUnits="userSpaceOnUse">
<stop stop-color="#EB4826"/>
<stop offset="1" stop-color="#EF6844"/>
</linearGradient>
<linearGradient id="paint23_linear" x1="32.7177" y1="10.6016" x2="32.7177" y2="12.7735" gradientUnits="userSpaceOnUse">
<stop stop-color="#F17B7D"/>
<stop offset="1" stop-color="#F6AFAB"/>
</linearGradient>
<linearGradient id="paint24_linear" x1="32.5156" y1="10.7625" x2="32.5156" y2="12.5788" gradientUnits="userSpaceOnUse">
<stop offset="0.00537634" stop-color="#F05C54"/>
<stop offset="1" stop-color="#EF635E"/>
</linearGradient>
<linearGradient id="paint25_linear" x1="26.6719" y1="10.6016" x2="26.6719" y2="12.7735" gradientUnits="userSpaceOnUse">
<stop stop-color="#F17B7D"/>
<stop offset="1" stop-color="#F6AFAB"/>
</linearGradient>
<linearGradient id="paint26_linear" x1="26.8017" y1="10.7537" x2="26.8017" y2="12.5895" gradientUnits="userSpaceOnUse">
<stop offset="0.00537634" stop-color="#F05C54"/>
<stop offset="1" stop-color="#EF635E"/>
</linearGradient>
<linearGradient id="paint27_linear" x1="29.7433" y1="14.9937" x2="29.7433" y2="15.9527" gradientUnits="userSpaceOnUse">
<stop offset="0.00537634" stop-color="#F05C54"/>
<stop offset="1" stop-color="#EF635E"/>
</linearGradient>
<linearGradient id="paint28_linear" x1="29.6981" y1="14.247" x2="29.6981" y2="11.4067" gradientUnits="userSpaceOnUse">
<stop stop-color="#F17B7D"/>
<stop offset="1" stop-color="#F6AFAB"/>
</linearGradient>
<linearGradient id="paint29_linear" x1="29.6981" y1="7.23195" x2="29.6981" y2="13.1993" gradientUnits="userSpaceOnUse">
<stop stop-color="#F17B7D"/>
<stop offset="1" stop-color="#F6AFAB"/>
</linearGradient>
<linearGradient id="paint30_linear" x1="29.7131" y1="9.56871" x2="29.7131" y2="10.9172" gradientUnits="userSpaceOnUse">
<stop offset="0.00537634" stop-color="#F05C54"/>
<stop offset="1" stop-color="#EF635E"/>
</linearGradient>
<linearGradient id="paint31_linear" x1="29.3682" y1="11.919" x2="30.1093" y2="11.919" gradientUnits="userSpaceOnUse">
<stop offset="0.00537634" stop-color="#F05C54"/>
<stop offset="1" stop-color="#EF635E"/>
</linearGradient>
<linearGradient id="paint32_linear" x1="26.4999" y1="11.091" x2="27.2257" y2="11.091" gradientUnits="userSpaceOnUse">
<stop offset="0.00537634" stop-color="#6A0F35"/>
<stop offset="1" stop-color="#782843"/>
</linearGradient>
<linearGradient id="paint33_linear" x1="32.2928" y1="11.0334" x2="33.0185" y2="11.0334" gradientUnits="userSpaceOnUse">
<stop offset="0.00537634" stop-color="#6A0F35"/>
<stop offset="1" stop-color="#782843"/>
</linearGradient>
<linearGradient id="paint34_linear" x1="29.7287" y1="18.5515" x2="29.7287" y2="15.688" gradientUnits="userSpaceOnUse">
<stop stop-color="#EB4826"/>
<stop offset="1" stop-color="#EF6844"/>
</linearGradient>
<linearGradient id="paint35_linear" x1="27.2849" y1="16.7733" x2="27.2055" y2="17.329" gradientUnits="userSpaceOnUse">
<stop stop-color="#EB4826"/>
<stop offset="1" stop-color="#EF6844"/>
</linearGradient>
<linearGradient id="paint36_linear" x1="28.5705" y1="16.9179" x2="28.5978" y2="17.4787" gradientUnits="userSpaceOnUse">
<stop stop-color="#EB4826"/>
<stop offset="1" stop-color="#EF6844"/>
</linearGradient>
<linearGradient id="paint37_linear" x1="30.0018" y1="17.0214" x2="30.0732" y2="17.5783" gradientUnits="userSpaceOnUse">
<stop stop-color="#EB4826"/>
<stop offset="1" stop-color="#EF6844"/>
</linearGradient>
<linearGradient id="paint38_linear" x1="31.409" y1="16.9071" x2="31.5674" y2="17.4457" gradientUnits="userSpaceOnUse">
<stop stop-color="#EB4826"/>
<stop offset="1" stop-color="#EF6844"/>
</linearGradient>
<linearGradient id="paint39_linear" x1="32.5995" y1="16.8411" x2="32.8387" y2="17.349" gradientUnits="userSpaceOnUse">
<stop stop-color="#EB4826"/>
<stop offset="1" stop-color="#EF6844"/>
</linearGradient>
<linearGradient id="paint40_linear" x1="30.3539" y1="9.61421" x2="28.8708" y2="6.64792" gradientUnits="userSpaceOnUse">
<stop stop-color="#B22878"/>
<stop offset="1" stop-color="#C04A99"/>
</linearGradient>
<linearGradient id="paint41_linear" x1="29.9721" y1="13.8427" x2="29.9721" y2="23.4756" gradientUnits="userSpaceOnUse">
<stop stop-color="#F9B566"/>
<stop offset="1" stop-color="#F89E44"/>
</linearGradient>
<linearGradient id="paint42_linear" x1="29.9668" y1="25.5282" x2="29.9668" y2="19.433" gradientUnits="userSpaceOnUse">
<stop offset="0.00537634" stop-color="#6A0F35"/>
<stop offset="1" stop-color="#782843"/>
</linearGradient>
<linearGradient id="paint43_linear" x1="29.755" y1="11.4939" x2="29.755" y2="8.47743" gradientUnits="userSpaceOnUse">
<stop stop-color="#B22878"/>
<stop offset="1" stop-color="#C04A99"/>
</linearGradient>
<linearGradient id="paint44_linear" x1="29.7557" y1="9.69877" x2="29.7557" y2="7.49204" gradientUnits="userSpaceOnUse">
<stop stop-color="#B22878"/>
<stop offset="1" stop-color="#C04A99"/>
</linearGradient>
<linearGradient id="paint45_linear" x1="34.4976" y1="13.4355" x2="36.5979" y2="13.4355" gradientUnits="userSpaceOnUse">
<stop stop-color="#DDDCFE"/>
<stop offset="1" stop-color="#B1AFE9"/>
</linearGradient>
<linearGradient id="paint46_linear" x1="8.65131" y1="2.37412" x2="28.6196" y2="2.37412" gradientUnits="userSpaceOnUse">
<stop stop-color="#DDDCFE"/>
<stop offset="1" stop-color="#B1AFE9"/>
</linearGradient>
<linearGradient id="paint47_linear" x1="2.68159" y1="13.3138" x2="4.90647" y2="13.3138" gradientUnits="userSpaceOnUse">
<stop stop-color="#DDDCFE"/>
<stop offset="1" stop-color="#B1AFE9"/>
</linearGradient>
<linearGradient id="paint48_linear" x1="14.8337" y1="29.3834" x2="14.8337" y2="41.3049" gradientUnits="userSpaceOnUse">
<stop stop-color="#F9B566"/>
<stop offset="1" stop-color="#F89E44"/>
</linearGradient>
<linearGradient id="paint49_linear" x1="26.8815" y1="29.3834" x2="26.8815" y2="41.3049" gradientUnits="userSpaceOnUse">
<stop stop-color="#F9B566"/>
<stop offset="1" stop-color="#F89E44"/>
</linearGradient>
<linearGradient id="paint50_linear" x1="18.4566" y1="21.4175" x2="18.4566" y2="18.0732" gradientUnits="userSpaceOnUse">
<stop offset="0.00537634" stop-color="#6A0F35"/>
<stop offset="1" stop-color="#782843"/>
</linearGradient>
<linearGradient id="paint51_linear" x1="22.2967" y1="21.4175" x2="22.2967" y2="18.0732" gradientUnits="userSpaceOnUse">
<stop offset="0.00537634" stop-color="#6A0F35"/>
<stop offset="1" stop-color="#782843"/>
</linearGradient>
<linearGradient id="paint52_linear" x1="23.4256" y1="14.3856" x2="23.4256" y2="19.8228" gradientUnits="userSpaceOnUse">
<stop stop-color="#F17B7D"/>
<stop offset="1" stop-color="#F6AFAB"/>
</linearGradient>
<linearGradient id="paint53_linear" x1="23.3119" y1="15.0546" x2="23.3119" y2="19.108" gradientUnits="userSpaceOnUse">
<stop offset="0.00537634" stop-color="#F05C54"/>
<stop offset="1" stop-color="#EF635E"/>
</linearGradient>
<linearGradient id="paint54_linear" x1="17.5753" y1="14.3856" x2="17.5753" y2="19.8228" gradientUnits="userSpaceOnUse">
<stop stop-color="#F17B7D"/>
<stop offset="1" stop-color="#F6AFAB"/>
</linearGradient>
<linearGradient id="paint55_linear" x1="17.7" y1="15.0546" x2="17.7" y2="19.108" gradientUnits="userSpaceOnUse">
<stop offset="0.00537634" stop-color="#F05C54"/>
<stop offset="1" stop-color="#EF635E"/>
</linearGradient>
<linearGradient id="paint56_linear" x1="20.5515" y1="20.1969" x2="20.5515" y2="22.7339" gradientUnits="userSpaceOnUse">
<stop stop-color="#F17B7D"/>
<stop offset="1" stop-color="#F6AFAB"/>
</linearGradient>
<linearGradient id="paint57_linear" x1="20.5515" y1="19.9458" x2="20.5515" y2="20.3589" gradientUnits="userSpaceOnUse">
<stop offset="0.00537634" stop-color="#F05C54"/>
<stop offset="1" stop-color="#EF635E"/>
</linearGradient>
<linearGradient id="paint58_linear" x1="20.5499" y1="19.9702" x2="20.5499" y2="16.4221" gradientUnits="userSpaceOnUse">
<stop stop-color="#F17B7D"/>
<stop offset="1" stop-color="#F6AFAB"/>
</linearGradient>
<linearGradient id="paint59_linear" x1="20.5499" y1="13.5891" x2="20.5499" y2="17.1362" gradientUnits="userSpaceOnUse">
<stop stop-color="#F17B7D"/>
<stop offset="1" stop-color="#F6AFAB"/>
</linearGradient>
<linearGradient id="paint60_linear" x1="20.6669" y1="16.6935" x2="20.6876" y2="15.2954" gradientUnits="userSpaceOnUse">
<stop offset="0.00537634" stop-color="#F05C54"/>
<stop offset="1" stop-color="#EF635E"/>
</linearGradient>
<linearGradient id="paint61_linear" x1="19.8271" y1="16.4074" x2="19.8271" y2="15.6004" gradientUnits="userSpaceOnUse">
<stop offset="0.00537634" stop-color="#6A0F35"/>
<stop offset="1" stop-color="#782843"/>
</linearGradient>
<linearGradient id="paint62_linear" x1="20.1844" y1="17.7232" x2="20.9016" y2="17.7232" gradientUnits="userSpaceOnUse">
<stop offset="0.00537634" stop-color="#F05C54"/>
<stop offset="1" stop-color="#EF635E"/>
</linearGradient>
<linearGradient id="paint63_linear" x1="17.8436" y1="17.4014" x2="17.8436" y2="15.2678" gradientUnits="userSpaceOnUse">
<stop offset="0.00537634" stop-color="#6A0F35"/>
<stop offset="1" stop-color="#782843"/>
</linearGradient>
<linearGradient id="paint64_linear" x1="23.2196" y1="17.4014" x2="23.2196" y2="15.2678" gradientUnits="userSpaceOnUse">
<stop offset="0.00537634" stop-color="#6A0F35"/>
<stop offset="1" stop-color="#782843"/>
</linearGradient>
<linearGradient id="paint65_linear" x1="19.74" y1="20.1825" x2="19.74" y2="11.3036" gradientUnits="userSpaceOnUse">
<stop stop-color="#EB4826"/>
<stop offset="1" stop-color="#EF6844"/>
</linearGradient>
<linearGradient id="paint66_linear" x1="19.766" y1="11.3848" x2="19.766" y2="12.3076" gradientUnits="userSpaceOnUse">
<stop stop-color="#F5A949"/>
<stop offset="1" stop-color="#EF6844"/>
</linearGradient>
<linearGradient id="paint67_linear" x1="17.8511" y1="13.7977" x2="17.8511" y2="17.7011" gradientUnits="userSpaceOnUse">
<stop stop-color="#EB4826"/>
<stop offset="1" stop-color="#EF6844"/>
</linearGradient>
<linearGradient id="paint68_linear" x1="20.5551" y1="16.7052" x2="20.5551" y2="14.68" gradientUnits="userSpaceOnUse">
<stop stop-color="#EB4826"/>
<stop offset="1" stop-color="#EF6844"/>
</linearGradient>
<linearGradient id="paint69_linear" x1="20.5623" y1="15.2777" x2="20.5623" y2="13.2619" gradientUnits="userSpaceOnUse">
<stop stop-color="#EB4826"/>
<stop offset="1" stop-color="#EF6844"/>
</linearGradient>
<linearGradient id="paint70_linear" x1="20.788" y1="21.2523" x2="20.788" y2="42.8816" gradientUnits="userSpaceOnUse">
<stop stop-color="#F9B566"/>
<stop offset="1" stop-color="#F89E44"/>
</linearGradient>
<linearGradient id="paint71_linear" x1="20.5349" y1="21.2525" x2="20.5349" y2="38.1181" gradientUnits="userSpaceOnUse">
<stop stop-color="#F9B566"/>
<stop offset="1" stop-color="#F89E44"/>
</linearGradient>
<linearGradient id="paint72_linear" x1="17.383" y1="37.7132" x2="17.383" y2="26.2719" gradientUnits="userSpaceOnUse">
<stop stop-color="#B22878"/>
<stop offset="1" stop-color="#C04A99"/>
</linearGradient>
<linearGradient id="paint73_linear" x1="23.7408" y1="37.7132" x2="23.7408" y2="26.2719" gradientUnits="userSpaceOnUse">
<stop stop-color="#B22878"/>
<stop offset="1" stop-color="#C04A99"/>
</linearGradient>
<linearGradient id="paint74_linear" x1="17.404" y1="26.1862" x2="17.0786" y2="24.4291" gradientUnits="userSpaceOnUse">
<stop stop-color="#B22878"/>
<stop offset="1" stop-color="#C04A99"/>
</linearGradient>
<linearGradient id="paint75_linear" x1="17.4139" y1="30.4458" x2="17.4535" y2="28.4151" gradientUnits="userSpaceOnUse">
<stop stop-color="#B22878"/>
<stop offset="1" stop-color="#C04A99"/>
</linearGradient>
<linearGradient id="paint76_linear" x1="23.6175" y1="26.1862" x2="23.9429" y2="24.4291" gradientUnits="userSpaceOnUse">
<stop stop-color="#B22878"/>
<stop offset="1" stop-color="#C04A99"/>
</linearGradient>
<linearGradient id="paint77_linear" x1="23.603" y1="30.4471" x2="23.5634" y2="28.4164" gradientUnits="userSpaceOnUse">
<stop stop-color="#B22878"/>
<stop offset="1" stop-color="#C04A99"/>
</linearGradient>
</defs>
</svg>
