<svg width="18" height="18" viewBox="0 0 18 18" fill="none" xmlns="http://www.w3.org/2000/svg">
<path d="M8.99985 0C4.04114 0 0 4.04114 0 8.99985C0 10.3586 0.315083 11.7086 0.908774 12.9329L0.413958 15.1468C0.261031 15.8394 0.387152 16.488 0.765075 16.9556C1.22386 17.5409 2.00695 17.7747 2.85288 17.5857L5.06681 17.0997C6.2911 17.6851 7.64108 17.9997 8.99985 17.9997C13.9586 17.9997 17.9997 13.9586 17.9997 8.99985C17.9997 4.04114 13.9586 0 8.99985 0Z" fill="#FDA758"/>
<path d="M10.3244 13C11.2546 13 12.0391 12.6011 12.6074 11.8484L13 11.3265L10.5091 8.76232L9.95579 9.3074C9.90173 9.36889 9.82516 9.39963 9.73282 9.39963C9.61721 9.39963 9.50197 9.34564 9.41751 9.26092L8.74073 8.58538C8.65627 8.5089 8.6101 8.40919 8.6026 8.30947C8.6026 8.22474 8.62549 8.15576 8.69456 8.09428L9.23283 7.5492L6.68073 5L6.15033 5.39963C5.08167 6.20562 4.73558 7.47198 5.20479 8.88529C5.85792 10.8272 8.118 13 10.3169 13H10.3244Z" fill="white"/>
</svg>
