<svg width="19" height="19" viewBox="0 0 19 19" fill="none" xmlns="http://www.w3.org/2000/svg">
<path d="M14.6907 3.537L14.6907 3.53699C14.4299 3.26703 14.0484 3.12849 13.6591 3.12849C13.2699 3.12849 12.8826 3.26701 12.6112 3.53816L14.6907 3.537ZM14.6907 3.537L14.692 3.53824L15.4596 4.30523C15.786 4.63134 15.9455 5.02029 15.9455 5.40264C15.9455 5.78485 15.7862 6.16823 15.4607 6.48387L15.4595 6.48507L6.69431 15.2828L3.13101 15.8793M14.6907 3.537L3.13101 15.8793M3.13101 15.8793L3.82468 12.337L12.6111 3.53824L3.13101 15.8793ZM7.12572 17.3109L7.12575 17.3111L7.13155 17.3095C7.52741 17.2055 7.92869 17.0168 8.2475 16.6982L17.0555 7.89799C18.4478 6.50691 18.4482 4.12314 17.0565 2.73162L16.3099 1.94539L16.3099 1.94537L16.3081 1.94351C14.9155 0.552165 12.5088 0.552165 11.1162 1.94351L11.1161 1.94359L2.3082 10.7639L2.37887 10.8347L2.30811 10.764L2.30814 10.764C2.00999 11.0619 1.80069 11.4827 1.69632 11.879L1.69619 11.8789L1.69513 11.884L0.927461 15.5575L0.927286 15.5574L0.926413 15.5634C0.821124 16.2787 1.03175 16.9771 1.54052 17.4854C1.94486 17.8894 2.53677 18.1 3.04554 18.1C3.22238 18.1 3.28922 18.0843 3.40628 18.0567C3.43149 18.0508 3.45903 18.0443 3.4905 18.0373C3.49081 18.0372 3.49113 18.0371 3.49145 18.0371L7.12572 17.3109Z" fill="#573353" stroke="#573353" stroke-width="0.2"/>
</svg>
