<svg width="15" height="20" viewBox="0 0 15 20" fill="none" xmlns="http://www.w3.org/2000/svg">
<path d="M14.0996 1.72066C13.9587 1.6385 10.6196 -0.260207 6.87541 1.70375C4.5707 2.9137 2.46337 2.27246 1.61112 1.91158V0.805542C1.61112 0.360876 1.25104 0 0.805542 0C0.360083 0 0 0.360876 0 0.805542V2.41666V10.4875V18.5278C0 18.9732 0.360083 19.3333 0.805542 19.3333C1.251 19.3333 1.61108 18.9732 1.61108 18.5278V11.6926C2.24667 11.8972 3.09008 12.0873 4.07287 12.0865C5.13783 12.0865 6.35904 11.865 7.62458 11.2012C10.5544 9.66103 13.1749 11.1174 13.2917 11.1851C13.5389 11.3277 13.8459 11.3293 14.0956 11.1859C14.3461 11.0417 14.5 10.7759 14.5 10.4875V2.41666C14.5 2.1307 14.3477 1.86487 14.0996 1.72066Z" fill="#29319F"/>
</svg>
