<svg width="11" height="10" viewBox="0 0 11 10" fill="none" xmlns="http://www.w3.org/2000/svg">
<path d="M10.6247 3.04047L8.13472 0.336266C7.92926 0.113139 7.72086 0 7.51534 0C7.23314 0 6.90364 0.23309 6.90364 0.890037V1.81066C5.09457 1.89629 3.40514 2.70203 2.1166 4.10134C0.751824 5.58341 0.000128906 7.55395 0 9.64999C0 9.80058 0.0886875 9.93432 0.220215 9.98199C0.253795 9.99414 0.28817 10 0.322223 10C0.421631 10 0.517859 9.94991 0.579906 9.86022C2.10141 7.66077 4.39207 6.36094 6.90364 6.25833V7.16479C6.90364 7.82169 7.23314 8.05483 7.51532 8.05483H7.51538C7.72088 8.05483 7.92928 7.94169 8.13472 7.71858L10.6247 5.01434C10.8667 4.75159 11 4.40109 11 4.0274C11 3.65378 10.8667 3.30326 10.6247 3.04047Z" fill="#573353"/>
</svg>
